<mxfile host="app.diagrams.net" modified="2023-11-06T06:47:44.594Z" agent="Mozilla/5.0 (Windows NT 10.0; Win64; x64) AppleWebKit/537.36 (KHTML, like Gecko) Chrome/119.0.0.0 Safari/537.36 Edg/119.0.0.0" etag="wXk5-34CYORam4wrMPrZ" version="22.0.8" type="device">
  <diagram name="Page-1" id="Wxk820e1E2Y1377f96aS">
    <mxGraphModel dx="1431" dy="3007" grid="1" gridSize="10" guides="1" tooltips="1" connect="1" arrows="1" fold="1" page="1" pageScale="1" pageWidth="850" pageHeight="1100" math="0" shadow="0">
      <root>
        <mxCell id="0" />
        <mxCell id="1" parent="0" />
        <mxCell id="SXZqmGNRQiKQuYYB5zSl-30" value="" style="edgeStyle=orthogonalEdgeStyle;rounded=0;orthogonalLoop=1;jettySize=auto;html=1;" edge="1" parent="1" source="SXZqmGNRQiKQuYYB5zSl-26" target="SXZqmGNRQiKQuYYB5zSl-29">
          <mxGeometry relative="1" as="geometry" />
        </mxCell>
        <mxCell id="SXZqmGNRQiKQuYYB5zSl-26" value="start" style="ellipse;whiteSpace=wrap;html=1;" vertex="1" parent="1">
          <mxGeometry x="300" y="-1110" width="120" height="80" as="geometry" />
        </mxCell>
        <mxCell id="SXZqmGNRQiKQuYYB5zSl-32" value="" style="edgeStyle=orthogonalEdgeStyle;rounded=0;orthogonalLoop=1;jettySize=auto;html=1;" edge="1" parent="1" source="SXZqmGNRQiKQuYYB5zSl-29" target="SXZqmGNRQiKQuYYB5zSl-31">
          <mxGeometry relative="1" as="geometry" />
        </mxCell>
        <mxCell id="SXZqmGNRQiKQuYYB5zSl-29" value="a,b" style="shape=parallelogram;perimeter=parallelogramPerimeter;whiteSpace=wrap;html=1;fixedSize=1;" vertex="1" parent="1">
          <mxGeometry x="300" y="-940" width="120" height="60" as="geometry" />
        </mxCell>
        <mxCell id="SXZqmGNRQiKQuYYB5zSl-34" value="" style="edgeStyle=orthogonalEdgeStyle;rounded=0;orthogonalLoop=1;jettySize=auto;html=1;" edge="1" parent="1" source="SXZqmGNRQiKQuYYB5zSl-31" target="SXZqmGNRQiKQuYYB5zSl-33">
          <mxGeometry relative="1" as="geometry" />
        </mxCell>
        <mxCell id="SXZqmGNRQiKQuYYB5zSl-40" value="" style="edgeStyle=orthogonalEdgeStyle;rounded=0;orthogonalLoop=1;jettySize=auto;html=1;" edge="1" parent="1" source="SXZqmGNRQiKQuYYB5zSl-31" target="SXZqmGNRQiKQuYYB5zSl-39">
          <mxGeometry relative="1" as="geometry" />
        </mxCell>
        <mxCell id="SXZqmGNRQiKQuYYB5zSl-31" value="a=0" style="rhombus;whiteSpace=wrap;html=1;" vertex="1" parent="1">
          <mxGeometry x="320" y="-810" width="80" height="80" as="geometry" />
        </mxCell>
        <mxCell id="SXZqmGNRQiKQuYYB5zSl-36" value="" style="edgeStyle=orthogonalEdgeStyle;rounded=0;orthogonalLoop=1;jettySize=auto;html=1;" edge="1" parent="1" source="SXZqmGNRQiKQuYYB5zSl-33" target="SXZqmGNRQiKQuYYB5zSl-35">
          <mxGeometry relative="1" as="geometry" />
        </mxCell>
        <mxCell id="SXZqmGNRQiKQuYYB5zSl-38" value="" style="edgeStyle=orthogonalEdgeStyle;rounded=0;orthogonalLoop=1;jettySize=auto;html=1;" edge="1" parent="1" source="SXZqmGNRQiKQuYYB5zSl-33" target="SXZqmGNRQiKQuYYB5zSl-37">
          <mxGeometry relative="1" as="geometry" />
        </mxCell>
        <mxCell id="SXZqmGNRQiKQuYYB5zSl-33" value="b=0" style="rhombus;whiteSpace=wrap;html=1;" vertex="1" parent="1">
          <mxGeometry x="480" y="-810" width="80" height="80" as="geometry" />
        </mxCell>
        <mxCell id="SXZqmGNRQiKQuYYB5zSl-35" value="vô số nghiệm" style="shape=parallelogram;perimeter=parallelogramPerimeter;whiteSpace=wrap;html=1;fixedSize=1;" vertex="1" parent="1">
          <mxGeometry x="620" y="-800" width="120" height="60" as="geometry" />
        </mxCell>
        <mxCell id="SXZqmGNRQiKQuYYB5zSl-37" value="vô nghiệm" style="shape=parallelogram;perimeter=parallelogramPerimeter;whiteSpace=wrap;html=1;fixedSize=1;" vertex="1" parent="1">
          <mxGeometry x="460" y="-640" width="120" height="60" as="geometry" />
        </mxCell>
        <mxCell id="SXZqmGNRQiKQuYYB5zSl-42" value="" style="edgeStyle=orthogonalEdgeStyle;rounded=0;orthogonalLoop=1;jettySize=auto;html=1;" edge="1" parent="1" source="SXZqmGNRQiKQuYYB5zSl-39" target="SXZqmGNRQiKQuYYB5zSl-41">
          <mxGeometry relative="1" as="geometry" />
        </mxCell>
        <mxCell id="SXZqmGNRQiKQuYYB5zSl-39" value="x=-b/a" style="whiteSpace=wrap;html=1;" vertex="1" parent="1">
          <mxGeometry x="300" y="-690" width="120" height="60" as="geometry" />
        </mxCell>
        <mxCell id="SXZqmGNRQiKQuYYB5zSl-44" value="" style="edgeStyle=orthogonalEdgeStyle;rounded=0;orthogonalLoop=1;jettySize=auto;html=1;" edge="1" parent="1" source="SXZqmGNRQiKQuYYB5zSl-41">
          <mxGeometry relative="1" as="geometry">
            <mxPoint x="360" y="-420" as="targetPoint" />
          </mxGeometry>
        </mxCell>
        <mxCell id="SXZqmGNRQiKQuYYB5zSl-41" value="x" style="shape=parallelogram;perimeter=parallelogramPerimeter;whiteSpace=wrap;html=1;fixedSize=1;" vertex="1" parent="1">
          <mxGeometry x="300" y="-550" width="120" height="60" as="geometry" />
        </mxCell>
        <mxCell id="SXZqmGNRQiKQuYYB5zSl-45" value="end" style="ellipse;whiteSpace=wrap;html=1;" vertex="1" parent="1">
          <mxGeometry x="300" y="-420" width="120" height="80" as="geometry" />
        </mxCell>
        <mxCell id="SXZqmGNRQiKQuYYB5zSl-46" value="đúng" style="text;html=1;align=center;verticalAlign=middle;resizable=0;points=[];autosize=1;strokeColor=none;fillColor=none;" vertex="1" parent="1">
          <mxGeometry x="405" y="-802" width="50" height="30" as="geometry" />
        </mxCell>
        <mxCell id="SXZqmGNRQiKQuYYB5zSl-47" value="sai" style="text;html=1;align=center;verticalAlign=middle;resizable=0;points=[];autosize=1;strokeColor=none;fillColor=none;" vertex="1" parent="1">
          <mxGeometry x="560" y="-802" width="40" height="30" as="geometry" />
        </mxCell>
        <mxCell id="SXZqmGNRQiKQuYYB5zSl-48" value="sai" style="text;html=1;align=center;verticalAlign=middle;resizable=0;points=[];autosize=1;strokeColor=none;fillColor=none;" vertex="1" parent="1">
          <mxGeometry x="510" y="-712" width="40" height="30" as="geometry" />
        </mxCell>
        <mxCell id="SXZqmGNRQiKQuYYB5zSl-49" value="sai" style="text;html=1;align=center;verticalAlign=middle;resizable=0;points=[];autosize=1;strokeColor=none;fillColor=none;" vertex="1" parent="1">
          <mxGeometry x="350" y="-732" width="40" height="30" as="geometry" />
        </mxCell>
        <mxCell id="SXZqmGNRQiKQuYYB5zSl-50" value="" style="endArrow=classic;html=1;rounded=0;exitX=0.5;exitY=1;exitDx=0;exitDy=0;entryX=1.023;entryY=0.632;entryDx=0;entryDy=0;entryPerimeter=0;" edge="1" parent="1" source="SXZqmGNRQiKQuYYB5zSl-37" target="SXZqmGNRQiKQuYYB5zSl-45">
          <mxGeometry width="50" height="50" relative="1" as="geometry">
            <mxPoint x="470" y="-430" as="sourcePoint" />
            <mxPoint x="520" y="-290" as="targetPoint" />
            <Array as="points">
              <mxPoint x="520" y="-370" />
            </Array>
          </mxGeometry>
        </mxCell>
        <mxCell id="SXZqmGNRQiKQuYYB5zSl-51" value="" style="endArrow=classic;html=1;rounded=0;exitX=0.5;exitY=1;exitDx=0;exitDy=0;entryX=0.5;entryY=1;entryDx=0;entryDy=0;" edge="1" parent="1" source="SXZqmGNRQiKQuYYB5zSl-35" target="SXZqmGNRQiKQuYYB5zSl-45">
          <mxGeometry width="50" height="50" relative="1" as="geometry">
            <mxPoint x="470" y="-430" as="sourcePoint" />
            <mxPoint x="680" y="-170" as="targetPoint" />
            <Array as="points">
              <mxPoint x="680" y="-270" />
              <mxPoint x="360" y="-270" />
            </Array>
          </mxGeometry>
        </mxCell>
      </root>
    </mxGraphModel>
  </diagram>
</mxfile>
